<svg xmlns="http://www.w3.org/2000/svg" viewBox="0 0 320 320">
  <g fill="none" stroke-width="2">
    <path stroke="#606060" d="M269 320q-8-26-36-20h-1q-8-4-17-5a1 1 4 0 1 0-1c0-6-3-8-6-13-2-3-4-4-7-4l-1-1 27-27c5-5 8-9 9-16l3-24a1 1 88 0 1 0-1c6 0 8-1 10-7 6-14 10-33 5-48q-4-8-12-8h-1l2-18-1-15 1-5q4-16-5-29l-14-21a80 80 0 0 0-55-31v-1l2-3a1 1 42 0 0 0-1l-5-2q-16-2-29 1c-35 7-68 25-75 63h-1q-10 11-11 25-1 16 2 36c2 7 4 14 8 21a1 1-13 0 1-1 1c-7 0-10 8-11 14l1 9q4 19 17 35 3 4 9 3l1 1c4 12 8 25 18 33q7 6 22 15v1q-5 3-5 8v1l-4 5v3a1 1-12 0 1 0 1l-7 1-9 4h-1q-20-6-32 10-3 3-4 10" vector-effect="non-scaling-stroke"/>
    <path stroke="#5f120c" d="M264 320h-1l1-1q-6-16-23-16v3a2 2 0 0 1-3 2q-11-6-24-9l-3 1q-9 13-24 20m-17 0v-1q17-2 30-13c3-2 12-12 9-16h-1l-4 5-1 1a1 1 0 0 1-1-1c2-3 7-11 0-13a2 2 0 0 0-3 1c-8 16-20 25-33 36m-34 1q-13-8-21-20l-1-1q-12 3-22 9c-4 2-6-1-4-4q1 0 0 0-19-2-24 16" vector-effect="non-scaling-stroke"/>
  </g>
  <!-- <path fill="#bfbfbf" d="M0 0h320v320h-51q-8-26-36-20h-1q-8-4-17-5a1 1 4 0 1 0-1c0-6-3-8-6-13-2-3-4-4-7-4l-1-1 27-27c5-5 8-9 9-16l3-24a1 1 88 0 1 0-1c6 0 8-1 10-7 6-14 10-33 5-48q-4-8-12-8h-1l2-18-1-15 1-5q4-16-5-29l-14-21a80 80 0 0 0-55-31v-1l2-3a1 1 42 0 0 0-1l-5-2q-16-2-29 1c-35 7-68 25-75 63h-1q-10 11-11 25-1 16 2 36c2 7 4 14 8 21a1 1-13 0 1-1 1c-7 0-10 8-11 14l1 9q4 19 17 35 3 4 9 3l1 1c4 12 8 25 18 33q7 6 22 15v1q-5 3-5 8v1l-4 5v3a1 1-12 0 1 0 1l-7 1-9 4h-1q-20-6-32 10-3 3-4 10H0V0Z"/> -->
  <path d="M269 320h-6l1-1q-6-16-23-16v3a2 2 0 0 1-3 2q-11-6-24-9l-3 1q-9 13-24 20h-17v-1q17-2 30-13c3-2 12-12 9-16h-1l-4 5-1 1a1 1 0 0 1-1-1c2-3 7-11 0-13a2 2 0 0 0-3 1c-8 16-20 25-33 36l-8 1h-26q-13-8-21-20l-1-1q-12 3-22 9c-4 2-6-1-4-4q1 0 0 0-19-2-24 16h-5q1-7 4-10 12-16 32-10h1l9-4 7-1a1 1-12 0 0 0-1v-3l4-5v-1q0-5 5-8v-1q-15-9-22-15c-10-8-14-21-18-33l-1-1q-6 1-9-3-13-16-17-35l-1-9c1-6 4-14 11-14a1 1-13 0 0 1-1c-4-7-6-14-8-21q-3-20-2-36 1-14 11-25h1c7-38 40-56 75-63q13-3 29-1l5 2a1 1 42 0 1 0 1l-2 3v1c21 3 43 13 55 31l14 21q9 13 5 29l-1 5 1 15-2 18h1q8 0 12 8c5 15 1 34-5 48-2 6-4 7-10 7a1 1 88 0 0 0 1l-3 24c-1 7-4 11-9 16l-27 27 1 1c3 0 5 1 7 4 3 5 6 7 6 13a1 1 4 0 0 0 1q9 1 17 5h1q28-6 36 20Z"/>
  <path fill="#282c2b" d="M101 92a1 1 0 0 1 0 1c-6 2-17 5-22-1-1-1-2-2-4-1a2 2 0 0 0-1 2c3 6 5 14 1 20q-5 9-5 19l-1 32 3 30h-1q0 1 0 0l-3-12c-1-12-3-18-7-28-4-12-5-26-5-40q0-15 9-26 2-2 2-5c3-7 4-13 8-20 17-27 54-41 83-40q4 0 1 1l-2 2a2 2 0 0 0-1 3c2 2 9 5 12 5q2-1 2-3h1c19 3 37 12 49 27l13 21c6 10 9 16 6 27l-3 6v1c4 4 4 12 3 17-3 15-2 26-1 45-2-20-8-37-12-56q-1-6-4-11l1-2h11a2 2 0 0 0 1-4l-10-9a1 1-25 0 0-1 0l-2 1c-1 2 2 6 4 7a1 1 0 0 1-1 1l-10-5q-13-9-21-12c-15-7-31-5-45 1-10 4-16 7-24 8-8 0-22-4-24-11a2 2 0 0 0-4-1c-2 3 2 8 4 10Z"/>
  <path d="m210 57-7-6-12-7a1 1 0 0 1 1-2c7 1 15 8 19 13a1 1 0 0 1-1 2Zm-56-9c1 2 0 2-1 3l-13 2c-7 0-10 4-15 6a1 1 0 0 1-1-2c8-7 19-8 30-9Zm9 3a3 1 12 0 1-3 0 3 1 12 0 1-3-2 3 1 12 0 1 3 0 3 1 12 0 1 3 2Zm22 6a1 1 0 0 1 1 1l-2 1q-21-4-39 7a1 1 45 0 1-1 0q-2-1 0-2 19-12 41-7Zm9 7c15-2 20 12 28 22a1 1 0 0 1-1 1h-1l-8-11c-5-7-9-11-18-10a1 1 83 0 1-1-1l1-1ZM81 70l2-2a1 1 0 0 1 1 2q-6 7-8 16a1 1 0 0 1-2 0v-1q1-9 7-15Z"/>
  <path fill="#fca" d="M145 224a1 1 86 0 0 2 1h2l1 1c-17 3-32 11-32 30q0 2-2 1-27-17-36-47c-3-9-4-19-5-28l-1-11 2-42c0-11 8-16 6-28v-1c8 2 16-1 25-4a1 1 41 0 1 0-1c6 2 11 4 16 4 24-2 44-21 68-10l19 11c8 6 9 13 12 24 4 13 8 27 9 40 3 18 3 36-3 53q-7 16-20 29c-5-19-23-22-40-22v-1h2a2 2 0 0 0 1-2c-5-6-7 6-13 5-3 0-11-9-13-2Z"/>
  <path d="M63 99a6 2-53 0 1 1-6 6 2-53 0 1 5-3h1l-7 9Zm5 5a5 2-74 0 1-1-5l1-3a5 2-74 0 1 3-3l-3 11Zm-8 3a2 1 103 0 1 0-3 2 1 103 0 1 1-2 2 1 103 0 1 1 3 2 1 103 0 1-2 2Zm148 28q7 5 6 13a2 2-68 0 1-3 2c-12-10-25-7-38-1-8 5-12-3-4-8 10-5 28-14 39-6Z"/>
  <path fill="#181a19" d="M193 134c7-1 18 3 19 12h-1l-3-2c-13-7-27-2-39 4a1 1 0 0 1-1-2c4-6 18-10 25-12Z"/>
  <path d="m95 159-4 5a1 1 0 0 1-1 0c-3-2-3-7-2-10 5-18 33-11 44-8q4 2 5 5a1 1 0 0 1-1 1q-2 4-7 2c-11-3-24-3-34 5Z"/>
  <path fill="#181a19" d="m94 157-3 3a1 1 0 0 1-1-1c-1-20 28-14 39-11q3 0 4 2 0 2-2 2c-14-2-26-4-37 5Z"/>
  <path fill="#fca" d="M247 151c11 9 3 39-2 50 0 1-2 3-4 2v-1l1-12q2-15 1-30a1 1 72 0 1 0-1l4-3a1 1 0 0 0-1-1h-2a1 1-9 0 1-2-1v-3q2-2 5 0Z"/>
  <path d="M171 163c11-9 32-13 40 2a1 1 55 0 1 0 1c-3 2-5 5-9 6l-20 4c-5 2-8 1-14-1-5-2 1-10 3-12Z"/>
  <path fill="#fff" d="M195 159c4 0 9 2 11 4a2 2 55 0 1-1 3l-6 2a1 1-7 0 1-1 0c-1-5-3-9-9-7-4 2-4 6-3 9l-1 1q-6 4-14 1a2 2-58 0 1 0-3q10-11 24-10Z"/>
  <path d="M168 198a2 2 0 0 1-3 2c-3-3-3-9-4-14l-3-21a2 2 0 0 1 3-1v2l5 28v1l2 3Zm-32-29q4 3 5 7a1 1 62 0 1-1 1c-4 3-7 5-13 5h-16c-6 0-10 2-15-3a1 1 28 0 1-1-1q2-9 9-12 17-6 32 3Zm10-4q2 2 2 5v18c1 3 2 11 0 14a1 1 0 0 1-3-1v-14l-1-21a1 1 0 0 1 2-1Z"/>
  <path fill="#fff" d="m135 173 1 1c2 3-6 5-8 5v-1l1-2v-1c-2-11-16-7-13 3l-13 1c-3 0-3-3-2-5 8-10 24-8 34-1Z"/>
  <path fill="#fca" d="m59 178 3 1h1c2 14 5 23 11 39v4a1 1 0 0 1 0 1q-3 0-4-2-12-16-16-36c0-5 1-15 7-14l1 1v3a1 1 0 0 1-1 1h-2a1 1 0 0 0 0 2Z"/>
  <path fill="#181a19" d="M119 262c1-6 1-14 5-20 5-7 16-11 24-13l11 1h1q7-4 13-3c7 0 18 1 24 6 5 4 9 12 10 19a1 1 0 0 0 1 0l11-16q12-16 15-34 1-5 1 0l-1 22c0 9-5 16-11 24q-18 19-35 33-12 9-27 9c-10 0-20-5-29-11l-29-17c-13-9-18-23-21-38h1c8 15 18 25 32 35a2 2-86 0 1 1 1l2 3 1-1Z"/>
  <path d="M174 222a1 1-71 0 1-1-1q3-6-1-11a1 1 0 0 1 0-1l2-1q5 5 4 12-1 3-4 2Zm-36 1a4 4 25 0 1 0-1q-2-5 0-9a1 1-64 0 1 2-1c2 1 2 2 1 4q-2 5 2 8a1 1 0 0 1 0 2q-2 2-5-3Zm22 47c-3 2-3 6-7 7l-3 1q-14 2-20-11c-6-10-6-24 7-28l21-7c3-1 5 1 8 1l24 1c8 2 10 14 9 21-2 12-11 20-24 20l-1-1c-4-4-7-7-14-4Z"/>
  <path fill="#fca" d="M190 237a1 1 0 0 1 0 3h-3l-32 4-17 2-4-1a1 1 0 0 1 0-1l3-2 21-7h5c9 1 17 0 27 2Z"/>
  <path fill="#fff" d="m137 251-1-1a1 1-90 0 1 1-1l20-1 31-4h1l-1 2q-22 5-45 6l-6-1Z"/>
  <path fill="#fca" d="m149 265 9 2q2-1 1 1c-3 1-4 4-5 6a1 1-79 0 1-1 1c-14 4-23-6-25-19l2-5h2c3 4 7 6 12 7 15 2 41 1 49-14a1 1 28 0 1 1 0c3 2 2 6 2 9-1 11-7 18-18 19-3 0-5-2-8-5a1 1-17 0 0 0-1h-2q7-1 12-5l1-1h-1q0-1 0 0-15 6-30 3a1 1 0 0 0-1 1v1Z"/>
  <path fill="#fff" d="m144 254 1-1q20 0 38-4l1 1q-19 7-39 5l-1-1Z"/>
  <path fill="#be2418" d="M120 297h1a1 1 52 0 0 0-1q-6-6-3-13a2 2 0 0 1 2-2c2 0 4 2 5 4 9 15 18 26 34 31v1c-4 4-15 2-19 1q-7-2-13-8c-4-2-15-14-14-19h2l4 6h1Zm50 23-4-1c13-11 25-20 33-36a2 2 0 0 1 3-1c7 2 2 10 0 13a1 1 0 0 0 1 1l1-1 4-5h1c3 4-6 14-9 16q-13 11-30 13v1Z"/>
  <path fill="#fca" d="M189 290c-1-3 2-6 5-7l-4 7a1 1 0 0 1-1 0Zm-58-4v-1a3 2 58 0 1 3 2 3 2 58 0 1 0 4l-3-5Zm38 24c-8 6-25-6-30-13a1 1-61 0 1 0-1v-6a1 1 0 0 1 1-1q22 11 44 0v7a1 1 67 0 1 0 1q-6 7-15 13Z"/>
  <path fill="#be2418" d="M132 320H60q5-18 24-16 1 0 0 0c-2 3 0 6 4 4q10-6 22-9l1 1q8 12 21 20Zm132 0h-77q15-7 24-20l3-1q13 3 24 9a2 2 0 0 0 3-2v-3q17 0 23 16l-1 1h1Z"/>
  <path fill="#bfbfbf" d="m166 319 4 1h-12l8-1Z"/>
</svg>